<svg width="24" height="24" viewBox="0 0 24 24" fill="none" xmlns="http://www.w3.org/2000/svg">
<path d="M0.0982265 23.0611V18.133L6.4502 12.0044L0.589359 6.31812C0.392906 6.12858 0.245566 5.91797 0.14734 5.68631C0.0491132 5.45465 0 5.22298 0 4.99132C0 4.75965 0.0491132 4.52799 0.14734 4.29632C0.245566 4.06466 0.392906 3.85406 0.589359 3.66451L3.53615 0.789765C3.73261 0.600222 3.95089 0.458064 4.191 0.363292C4.4311 0.26852 4.67121 0.221134 4.91132 0.221134C5.15143 0.221134 5.397 0.26852 5.64802 0.363292C5.89904 0.458064 6.12278 0.600222 6.31924 0.789765L12.2128 6.47608L18.663 0.252725C18.7722 0.147423 18.8813 0.0789764 18.9904 0.0473858C19.0996 0.0157952 19.2196 0 19.3506 0C19.4816 0 19.6016 0.0157952 19.7108 0.0473858C19.8199 0.0789764 19.9291 0.147423 20.0382 0.252725L23.7381 3.82246C23.8472 3.92777 23.9181 4.03307 23.9509 4.13837C23.9836 4.24367 24 4.3595 24 4.48587C24 4.61223 23.9836 4.72806 23.9509 4.83336C23.9181 4.93867 23.8472 5.04397 23.7381 5.14927L17.2879 11.3726L23.1814 17.0589C23.3779 17.2485 23.5252 17.4643 23.6235 17.7065C23.7217 17.9487 23.7708 18.1857 23.7708 18.4173C23.7708 18.649 23.7217 18.8807 23.6235 19.1123C23.5252 19.344 23.3779 19.5546 23.1814 19.7441L20.2347 22.5557C20.0382 22.7452 19.8199 22.8874 19.5798 22.9822C19.3397 23.0769 19.0996 23.1243 18.8595 23.1243C18.6194 23.1243 18.3793 23.0769 18.1392 22.9822C17.899 22.8874 17.6808 22.7452 17.4843 22.5557L11.5907 16.901L5.206 23.0611H0.0982265ZM7.85812 10.646L10.8049 7.80288L8.41473 5.49677L6.84311 7.01312L5.46794 5.68631L7.03956 4.16996L4.94407 2.14816L1.99727 4.99132L7.85812 10.646ZM18.794 21.2289L21.7408 18.3857L19.6453 16.3639L18.0737 17.8803L16.6985 16.5535L18.2701 15.0371L15.8799 12.731L12.9332 15.5742L18.794 21.2289ZM2.06276 21.1657H4.35471L17.9427 8.05561L15.6507 5.84426L2.06276 18.9544V21.1657ZM19.3179 6.7288L21.6098 4.51746L19.3179 2.30611L17.0259 4.51746L19.3179 6.7288Z" fill="url(#paint0_linear_211_198)"/>
<defs>
<linearGradient id="paint0_linear_211_198" x1="12" y1="0" x2="12" y2="23.1243" gradientUnits="userSpaceOnUse">
<stop stop-color="#152AEC"/>
<stop offset="1" stop-color="#3C4DEE"/>
</linearGradient>
</defs>
</svg>
