<svg width="24" height="24" viewBox="0 0 24 24" fill="none" xmlns="http://www.w3.org/2000/svg">
<path d="M1.8 23.1243C1.32 23.1243 0.9 22.9508 0.54 22.604C0.18 22.2571 0 21.8524 0 21.3899V1.73432C0 1.27183 0.18 0.86716 0.54 0.520296C0.9 0.173432 1.32 0 1.8 0H22.2C22.68 0 23.1 0.173432 23.46 0.520296C23.82 0.86716 24 1.27183 24 1.73432V21.3899C24 21.8524 23.82 22.2571 23.46 22.604C23.1 22.9508 22.68 23.1243 22.2 23.1243H1.8ZM1.8 21.3899H22.2V1.73432H1.8V21.3899ZM5.61 18.4705H18.39C19.03 18.4705 19.54 18.2874 19.92 17.9213C20.3 17.5552 20.49 17.0638 20.49 16.4471V11.8223C20.49 11.2827 20.33 10.8106 20.01 10.4059C19.69 10.0012 19.31 9.69292 18.87 9.48095V8.1513C18.87 7.2456 18.54 6.4748 17.88 5.83888C17.22 5.20296 16.42 4.885 15.48 4.885H8.52C7.58 4.885 6.78 5.20296 6.12 5.83888C5.46 6.4748 5.13 7.2456 5.13 8.1513V9.50986C4.69 9.72183 4.31 10.0302 3.99 10.4348C3.67 10.8395 3.51 11.3116 3.51 11.8512V16.4471C3.51 17.0638 3.7 17.5552 4.08 17.9213C4.46 18.2874 4.97 18.4705 5.61 18.4705ZM5.61 17.0252C5.45 17.0252 5.31 16.9674 5.19 16.8518C5.07 16.7362 5.01 16.6013 5.01 16.4471V11.8223C5.01 11.4561 5.125 11.1623 5.355 10.9407C5.585 10.7191 5.89 10.6083 6.27 10.6083C6.65 10.6083 6.955 10.7191 7.185 10.9407C7.415 11.1623 7.53 11.4561 7.53 11.8223V14.3949H16.47V11.8223C16.47 11.4561 16.585 11.1623 16.815 10.9407C17.045 10.7191 17.35 10.6083 17.73 10.6083C18.11 10.6083 18.415 10.7191 18.645 10.9407C18.875 11.1623 18.99 11.4561 18.99 11.8223V16.4471C18.99 16.6013 18.93 16.7362 18.81 16.8518C18.69 16.9674 18.55 17.0252 18.39 17.0252H5.61ZM9.03 12.9496V11.8512C9.03 11.1189 8.795 10.5264 8.325 10.0735C7.855 9.62066 7.29 9.37496 6.63 9.33642V8.1513C6.63 7.63101 6.81 7.19743 7.17 6.85056C7.53 6.5037 7.98 6.33027 8.52 6.33027H15.48C16.02 6.33027 16.47 6.5037 16.83 6.85056C17.19 7.19743 17.37 7.63101 17.37 8.1513V9.33642C16.71 9.37496 16.145 9.62066 15.675 10.0735C15.205 10.5264 14.97 11.1189 14.97 11.8512V12.9496H9.03ZM1.8 21.3899V1.73432V21.3899Z" fill="url(#paint0_linear_211_196)"/>
<defs>
<linearGradient id="paint0_linear_211_196" x1="12" y1="0" x2="12" y2="23.1243" gradientUnits="userSpaceOnUse">
<stop stop-color="#152AEC"/>
<stop offset="1" stop-color="#3C4DEE"/>
</linearGradient>
</defs>
</svg>
