<svg width="24" height="24" viewBox="0 0 24 24" fill="none" xmlns="http://www.w3.org/2000/svg">
<path d="M12 23.1243C10.36 23.1243 8.81 22.8208 7.35 22.2137C5.89 21.6067 4.615 20.7781 3.525 19.7279C2.435 18.6777 1.575 17.4492 0.945 16.0425C0.315 14.6357 0 13.1423 0 11.5621C0 9.92417 0.32 8.40182 0.96 6.99509C1.6 5.58836 2.475 4.36471 3.585 3.32411C4.695 2.28352 5.995 1.46935 7.485 0.881613C8.975 0.293871 10.57 0 12.27 0C13.85 0 15.35 0.25533 16.77 0.765991C18.19 1.27665 19.435 1.98483 20.505 2.89053C21.575 3.79623 22.425 4.87055 23.055 6.11348C23.685 7.35641 24 8.71978 24 10.2036C24 12.2848 23.37 13.9276 22.11 15.1319C20.85 16.3363 19.18 16.9385 17.1 16.9385H14.85C14.49 16.9385 14.18 17.0734 13.92 17.3432C13.66 17.613 13.53 17.9117 13.53 18.2393C13.53 18.7596 13.675 19.2028 13.965 19.5689C14.255 19.935 14.4 20.359 14.4 20.8407C14.4 21.573 14.19 22.1367 13.77 22.5317C13.35 22.9267 12.76 23.1243 12 23.1243ZM5.01 12.3137C5.41 12.3137 5.76 12.1691 6.06 11.8801C6.36 11.591 6.51 11.2538 6.51 10.8684C6.51 10.483 6.36 10.1458 6.06 9.85672C5.76 9.56767 5.41 9.42314 5.01 9.42314C4.61 9.42314 4.26 9.56767 3.96 9.85672C3.66 10.1458 3.51 10.483 3.51 10.8684C3.51 11.2538 3.66 11.591 3.96 11.8801C4.26 12.1691 4.61 12.3137 5.01 12.3137ZM8.79 7.39977C9.19 7.39977 9.54 7.25524 9.84 6.96619C10.14 6.67713 10.29 6.3399 10.29 5.9545C10.29 5.56909 10.14 5.23187 9.84 4.94281C9.54 4.65376 9.19 4.50923 8.79 4.50923C8.39 4.50923 8.04 4.65376 7.74 4.94281C7.44 5.23187 7.29 5.56909 7.29 5.9545C7.29 6.3399 7.44 6.67713 7.74 6.96619C8.04 7.25524 8.39 7.39977 8.79 7.39977ZM15.21 7.39977C15.61 7.39977 15.96 7.25524 16.26 6.96619C16.56 6.67713 16.71 6.3399 16.71 5.9545C16.71 5.56909 16.56 5.23187 16.26 4.94281C15.96 4.65376 15.61 4.50923 15.21 4.50923C14.81 4.50923 14.46 4.65376 14.16 4.94281C13.86 5.23187 13.71 5.56909 13.71 5.9545C13.71 6.3399 13.86 6.67713 14.16 6.96619C14.46 7.25524 14.81 7.39977 15.21 7.39977ZM19.14 12.3137C19.54 12.3137 19.89 12.1691 20.19 11.8801C20.49 11.591 20.64 11.2538 20.64 10.8684C20.64 10.483 20.49 10.1458 20.19 9.85672C19.89 9.56767 19.54 9.42314 19.14 9.42314C18.74 9.42314 18.39 9.56767 18.09 9.85672C17.79 10.1458 17.64 10.483 17.64 10.8684C17.64 11.2538 17.79 11.591 18.09 11.8801C18.39 12.1691 18.74 12.3137 19.14 12.3137ZM12 21.3899C12.22 21.3899 12.375 21.3466 12.465 21.2599C12.555 21.1732 12.6 21.0334 12.6 20.8407C12.6 20.571 12.455 20.3205 12.165 20.0892C11.875 19.858 11.73 19.3473 11.73 18.5572C11.73 17.6708 12.03 16.8904 12.63 16.2159C13.23 15.5414 13.99 15.2042 14.91 15.2042H17.1C18.62 15.2042 19.85 14.7754 20.79 13.9179C21.73 13.0604 22.2 11.8223 22.2 10.2036C22.2 7.65991 21.2 5.61245 19.2 4.0612C17.2 2.50995 14.89 1.73432 12.27 1.73432C9.35 1.73432 6.875 2.68338 4.845 4.5815C2.815 6.47961 1.8 8.80649 1.8 11.5621C1.8 14.2792 2.795 16.5965 4.785 18.5139C6.775 20.4313 9.18 21.3899 12 21.3899Z" fill="url(#paint0_linear_211_194)"/>
<defs>
<linearGradient id="paint0_linear_211_194" x1="12" y1="0" x2="12" y2="23.1243" gradientUnits="userSpaceOnUse">
<stop stop-color="#152AEC"/>
<stop offset="1" stop-color="#3C4DEE"/>
</linearGradient>
</defs>
</svg>
