<svg width="24" height="24" viewBox="0 0 24 24" fill="none" xmlns="http://www.w3.org/2000/svg">
<path d="M0 23.1243V19.9247H24V23.1243H0ZM2.46 17.1219V13.605L13.65 3.74205L17.64 7.25887L6.45 17.1219H2.46ZM4.26 15.5353H5.61L15.06 7.20599L13.71 6.01608L4.26 14.3454V15.5353ZM18.96 6.09541L14.97 2.57858L17.49 0.357427C17.71 0.12826 17.96 0.00927001 18.24 0.000455903C18.52 -0.00835821 18.8 0.110632 19.08 0.357427L21.42 2.41993C21.68 2.6491 21.81 2.89148 21.81 3.14709C21.81 3.4027 21.7 3.64509 21.48 3.87426L18.96 6.09541Z" fill="url(#paint0_linear_211_192)"/>
<defs>
<linearGradient id="paint0_linear_211_192" x1="12" y1="0" x2="12" y2="23.1243" gradientUnits="userSpaceOnUse">
<stop stop-color="#152AEC"/>
<stop offset="1" stop-color="#3C4DEE"/>
</linearGradient>
</defs>
</svg>
