<svg width="200" height="56" viewBox="0 0 200 56" fill="none" xmlns="http://www.w3.org/2000/svg">
<path d="M12.4112 27.6875C14.1306 27.6875 15.8288 28.0419 17.5005 28.7455C19.1723 29.4518 20.5927 30.4041 21.7645 31.6023L18.347 35.6442C17.5904 34.7131 16.6884 33.9803 15.6383 33.4434C14.5855 32.9011 13.5433 32.6287 12.5064 32.6287C10.6707 32.6287 9.13381 33.2794 7.89322 34.5755C6.65792 35.8664 6.04159 37.4614 6.04159 39.358C6.04159 41.3048 6.65792 42.9316 7.89322 44.2357C9.13381 45.5424 10.6707 46.1931 12.5064 46.1931C13.4798 46.1931 14.4903 45.9498 15.5431 45.4631C16.5932 44.9764 17.527 44.3151 18.347 43.4739L21.7963 47.1242C20.5319 48.4098 19.0453 49.4388 17.3312 50.2138C15.6171 50.9836 13.9084 51.3671 12.2102 51.3671C8.71851 51.3671 5.80881 50.2297 3.48106 47.9495C1.15859 45.672 0 42.8285 0 39.4215C0 36.0859 1.17975 33.2952 3.54454 31.0521C5.91462 28.809 8.86929 27.6875 12.4112 27.6875Z" fill="white"/>
<path d="M36.983 27.6875C40.5857 27.6875 43.5801 28.809 45.966 31.0521C48.3572 33.2952 49.5529 36.0991 49.5529 39.4638C49.5529 42.8443 48.352 45.672 45.9554 47.9495C43.5562 50.2297 40.5645 51.3671 36.983 51.3671C33.3988 51.3671 30.4123 50.235 28.0211 47.9707C25.6352 45.7011 24.4448 42.8655 24.4448 39.4638C24.4448 36.078 25.6352 33.2714 28.0211 31.0415C30.4123 28.8064 33.3988 27.6875 36.983 27.6875ZM37.057 32.6287C35.2372 32.6287 33.6844 33.29 32.4015 34.6073C31.1239 35.9193 30.4864 37.5487 30.4864 39.4955C30.4864 41.4424 31.1318 43.0877 32.4227 44.4262C33.7188 45.7593 35.261 46.4259 37.0465 46.4259C38.8372 46.4259 40.3582 45.7593 41.6067 44.4262C42.8606 43.0877 43.4901 41.4424 43.4901 39.4955C43.4901 37.5487 42.8606 35.9193 41.6067 34.6073C40.3582 33.29 38.8399 32.6287 37.057 32.6287Z" fill="white"/>
<path d="M75.5978 51.1026H70.3815L59.7056 36.808V51.1026H54.1613V27.8885H59.3776L70.0852 42.2148V27.8885H75.5978V51.1026Z" fill="white"/>
<path d="M99.4784 32.6287H92.4739V51.1026H86.5699V32.6287H79.6395V27.8462H99.4784V32.6287Z" fill="white"/>
<path d="M117.48 51.1026L114.031 44.5637H109.386V51.1026H103.482V27.8885H113.872C116.941 27.8885 119.314 28.5921 120.993 29.9941C122.678 31.3986 123.522 33.3905 123.522 35.9722C123.522 39.5564 122.117 42.0455 119.311 43.4422L124.189 51.1026H117.48ZM109.386 39.9294H113.872C115.155 39.9294 116.15 39.6093 116.856 38.9665C117.56 38.3264 117.914 37.3953 117.914 36.1732C117.914 34.9829 117.56 34.0756 116.856 33.454C116.15 32.835 115.155 32.5228 113.872 32.5228H109.386V39.9294Z" fill="white"/>
<path d="M140.003 27.6875C143.606 27.6875 146.6 28.809 148.986 31.0521C151.377 33.2952 152.573 36.0991 152.573 39.4638C152.573 42.8443 151.372 45.672 148.975 47.9495C146.576 50.2297 143.585 51.3671 140.003 51.3671C136.419 51.3671 133.432 50.235 131.041 47.9707C128.655 45.7011 127.465 42.8655 127.465 39.4638C127.465 36.078 128.655 33.2714 131.041 31.0415C133.432 28.8064 136.419 27.6875 140.003 27.6875ZM140.077 32.6287C138.257 32.6287 136.704 33.29 135.422 34.6073C134.144 35.9193 133.506 37.5487 133.506 39.4955C133.506 41.4424 134.152 43.0877 135.443 44.4262C136.739 45.7593 138.281 46.4259 140.066 46.4259C141.857 46.4259 143.378 45.7593 144.627 44.4262C145.881 43.0877 146.51 41.4424 146.51 39.4955C146.51 37.5487 145.881 35.9193 144.627 34.6073C143.378 33.29 141.86 32.6287 140.077 32.6287Z" fill="white"/>
<path d="M163.05 51.1026H157.316V26.4918H163.05V51.1026Z" fill="#18AEFF"/>
<path d="M175.19 51.1026H169.455V26.4918H175.19V51.1026Z" fill="#18AEFF"/>
<path d="M199.63 32.5228H187.356V37.136H198.445V41.781H187.356V46.4577H200V51.1026H181.452V27.8885H199.63V32.5228Z" fill="white"/>
<path d="M25.0181 17.2265V22.9613H0.407349V17.2265H25.0181Z" fill="#18AEFF"/>
<path d="M25.0181 5.08694V10.8217H0.407349V5.08694H25.0181Z" fill="#18AEFF"/>
<path d="M39.2291 0C42.6917 0 45.7389 0.862328 48.3709 2.5817L46.1489 7.18431C44.9348 6.48069 43.6333 5.9014 42.2446 5.44907C40.8533 4.99939 39.6841 4.7719 38.7318 4.7719C37.0389 4.7719 36.1925 5.33268 36.1925 6.45424C36.1925 7.1896 36.6078 7.77683 37.441 8.22122C38.2795 8.66032 39.2979 9.03593 40.4988 9.35336C41.705 9.67078 42.9059 10.0596 44.1068 10.5172C45.313 10.9696 46.3341 11.7023 47.1752 12.718C48.0138 13.7285 48.4344 15.0035 48.4344 16.5482C48.4344 18.7781 47.5614 20.516 45.8209 21.7645C44.0777 23.0131 41.8584 23.6373 39.1656 23.6373C37.2452 23.6373 35.3486 23.3067 33.4732 22.6427C31.5951 21.9814 29.9631 21.0741 28.5743 19.9235L30.8598 15.3949C32.0289 16.4107 33.4097 17.2439 34.9968 17.892C36.5839 18.5427 37.9938 18.8654 39.2291 18.8654C40.1814 18.8654 40.922 18.6961 41.4511 18.3575C41.9801 18.0137 42.2446 17.5111 42.2446 16.8551C42.2446 16.215 41.9404 15.678 41.3347 15.2468C40.7263 14.8183 39.9724 14.4956 39.0704 14.284C38.1658 14.0724 37.1818 13.792 36.1184 13.4375C35.0603 13.0857 34.079 12.7022 33.177 12.2842C32.2723 11.861 31.5184 11.1944 30.9127 10.2845C30.3043 9.36923 30.0027 8.26883 30.0027 6.98327C30.0027 4.86713 30.8439 3.17422 32.5315 1.90453C34.2165 0.634843 36.449 0 39.2291 0Z" fill="white"/>
<path d="M64.1173 0.0740623C67.7147 0.0740623 70.7037 1.19562 73.0897 3.43873C75.473 5.67655 76.666 8.46986 76.666 11.8187C76.666 15.1992 75.4651 18.0243 73.0685 20.2938C70.6773 22.566 67.6935 23.7008 64.1173 23.7008C60.5463 23.7008 57.5704 22.574 55.1871 20.315C52.8012 18.0507 51.6108 15.2204 51.6108 11.8187C51.6108 8.44077 52.8012 5.63952 55.1871 3.41757C57.5704 1.19033 60.5463 0.0740623 64.1173 0.0740623ZM64.1913 5.00468C62.3767 5.00468 60.8293 5.66068 59.5464 6.97269C58.2688 8.2847 57.6313 9.91149 57.6313 11.8504C57.6313 13.792 58.2767 15.432 59.5675 16.7704C60.8584 18.1036 62.3952 18.7702 64.1807 18.7702C65.9715 18.7702 67.4925 18.1036 68.741 16.7704C69.9895 15.432 70.6138 13.792 70.6138 11.8504C70.6138 9.91149 69.9895 8.2847 68.741 6.97269C67.4925 5.66068 65.9742 5.00468 64.1913 5.00468Z" fill="white"/>
<path d="M81.2667 0.264515H92.2178C94.8206 0.264515 96.8865 0.790906 98.4181 1.84104C99.9549 2.89382 100.725 4.30106 100.725 6.06275C100.725 7.27689 100.37 8.34289 99.6666 9.25813C98.9603 10.1681 97.9895 10.8029 96.7569 11.1627C98.2091 11.4457 99.365 12.1149 100.227 13.173C101.087 14.2311 101.518 15.5113 101.518 17.0138C101.518 18.9818 100.717 20.5451 99.1164 21.7011C97.5214 22.8596 95.355 23.4363 92.6198 23.4363H81.2667V0.264515ZM87.1284 4.7719V9.53322H91.8898C92.7494 9.53322 93.4345 9.31896 93.9424 8.8878C94.4503 8.45928 94.7042 7.86941 94.7042 7.12082C94.7042 6.39604 94.4503 5.82468 93.9424 5.40674C93.4345 4.98352 92.7494 4.7719 91.8898 4.7719H87.1284ZM87.1284 13.7761V18.8972H91.8898C92.9902 18.8972 93.8525 18.6697 94.482 18.2094C95.1169 17.7439 95.4343 17.1037 95.4343 16.2837C95.4343 15.5166 95.1169 14.9056 94.482 14.4533C93.8525 14.0036 92.9902 13.7761 91.8898 13.7761H87.1284Z" fill="white"/>
</svg>
